<svg width="43" height="43" viewBox="0 0 43 43" fill="none" xmlns="http://www.w3.org/2000/svg">
<g clip-path="url(#clip0)">
<path d="M41.8716 33.1736L33.1683 27.3695C32.0638 26.6388 30.5833 26.8792 29.7668 27.9219L27.2316 31.1815C26.9058 31.6111 26.3135 31.7358 25.8422 31.4739L25.3599 31.2081C23.7613 30.3367 21.7721 29.2519 17.7644 25.2427C13.7567 21.2336 12.6697 19.2429 11.7983 17.6472L11.5339 17.1649C11.2684 16.6937 11.3907 16.0989 11.8204 15.7705L15.0779 13.2361C16.1201 12.4194 16.3609 10.9394 15.6311 9.83454L9.82695 1.13118C9.07902 0.00612559 7.57844 -0.33161 6.42055 0.364434L2.78112 2.55064C1.63759 3.22292 0.79863 4.3117 0.440154 5.58883C-0.870396 10.364 0.115518 18.6052 12.2555 30.7466C21.9126 40.4029 29.1019 42.9998 34.0433 42.9998C35.1805 43.0046 36.3133 42.8567 37.4111 42.5598C38.6885 42.2018 39.7775 41.3627 40.4493 40.2189L42.6377 36.5816C43.3348 35.4235 42.9972 33.922 41.8716 33.1736ZM41.403 35.8464L39.2196 39.4858C38.7372 40.3114 37.954 40.9184 37.0341 41.1797C32.6258 42.39 24.9243 41.3876 13.2694 29.7327C1.6145 18.0778 0.612128 10.3769 1.82242 5.96796C2.08407 5.04696 2.69186 4.26275 3.51848 3.77957L7.15791 1.59622C7.66031 1.29392 8.3116 1.44045 8.63615 1.92866L11.789 6.66224L14.4353 10.6313C14.7522 11.1105 14.6481 11.7528 14.196 12.1074L10.9378 14.6418C9.94628 15.4 9.66313 16.7719 10.2736 17.8607L10.5323 18.3307C11.4481 20.0103 12.5867 22.0998 16.7435 26.2559C20.9002 30.4119 22.9891 31.5506 24.6679 32.4663L25.1386 32.7257C26.2273 33.3361 27.5993 33.053 28.3575 32.0615L30.8919 28.8033C31.2466 28.3514 31.8886 28.2474 32.368 28.564L41.0706 34.3681C41.5592 34.6924 41.7057 35.344 41.403 35.8464Z" fill="white"/>
<path d="M24.3652 7.17037C31.0898 7.17784 36.5392 12.6274 36.5468 19.3519C36.5468 19.7477 36.8675 20.0685 37.2633 20.0685C37.6591 20.0685 37.9798 19.7477 37.9798 19.3519C37.9715 11.8362 31.881 5.74553 24.3652 5.7373C23.9695 5.7373 23.6487 6.05808 23.6487 6.45384C23.6487 6.8496 23.9695 7.17037 24.3652 7.17037Z" fill="white"/>
<path d="M24.3652 11.4697C28.7163 11.4748 32.2423 15.0008 32.2474 19.3519C32.2474 19.7476 32.5683 20.0684 32.9639 20.0684C33.3597 20.0684 33.6805 19.7476 33.6805 19.3519C33.6745 14.2096 29.5074 10.0425 24.3652 10.0366C23.9695 10.0366 23.6487 10.3574 23.6487 10.7532C23.6487 11.1489 23.9695 11.4697 24.3652 11.4697Z" fill="white"/>
<path d="M24.3652 15.769C26.3429 15.7714 27.9456 17.374 27.948 19.3518C27.948 19.7476 28.2689 20.0684 28.6646 20.0684C29.0603 20.0684 29.3811 19.7476 29.3811 19.3518C29.3779 16.5829 27.1341 14.339 24.3652 14.3359C23.9695 14.3359 23.6487 14.6567 23.6487 15.0525C23.6487 15.4482 23.9695 15.769 24.3652 15.769Z" fill="white"/>
</g>
<defs>
<clipPath id="clip0">
<rect width="43" height="43" fill="white"/>
</clipPath>
</defs>
</svg>
